name analog
datacolumns 19
datarows 36
range 0.648 0.6655
endheader
time	ground_force_vx	ground_force_vy	ground_force_vz	ground_force_px	ground_force_py	ground_force_pz	l_ground_force_vx	l_ground_force_vy	l_ground_force_vz	l_ground_force_px	l_ground_force_py	l_ground_force_pz	ground_torque_x	ground_torque_y	ground_torque_z	l_ground_torque_x	l_ground_torque_y	l_ground_torque_z
0.648	-0.0	-0.0	-0.0	1.0551187992095947	6.239128112792969	-786.8239135742188	-0.0	-0.0	-0.0	-0.0	-0.0	-0.0	-0.0	-0.0	-0.0	-0.0	-0.0	-0.0
0.6485	-0.0	-0.0	-0.0	1.549144983291626	6.067962169647217	-787.6529541015625	-0.0	-0.0	-0.0	-0.0	-0.0	-0.0	-0.0	-0.0	-0.0	-0.0	-0.0	-0.0
0.649	-0.0	-0.0	-0.0	2.344630718231201	5.736848831176758	-787.5288696289062	-0.0	-0.0	-0.0	-0.0	-0.0	-0.0	-0.0	-0.0	-0.0	-0.0	-0.0	-0.0
0.6495	-0.0	-0.0	-0.0	2.4163501262664795	5.226227283477783	-788.3631591796875	-0.0	-0.0	-0.0	-0.0	-0.0	-0.0	-0.0	-0.0	-0.0	-0.0	-0.0	-0.0
0.65	-0.0	-0.0	-0.0	2.522186279296875	5.347824096679688	-791.4439697265625	-0.0	-0.0	-0.0	-0.0	-0.0	-0.0	-0.0	-0.0	-0.0	-0.0	-0.0	-0.0
0.6505	-0.0	-0.0	-0.0	2.303344249725342	5.015641212463379	-791.6365356445312	-0.0	-0.0	-0.0	-0.0	-0.0	-0.0	-0.0	-0.0	-0.0	-0.0	-0.0	-0.0
0.651	-0.0	-0.0	-0.0	2.0274083614349365	4.877760887145996	-790.5449829101562	-0.0	-0.0	-0.0	-0.0	-0.0	-0.0	-0.0	-0.0	-0.0	-0.0	-0.0	-0.0
0.6515	-0.0	-0.0	-0.0	2.060656309127808	5.040270805358887	-789.5511474609375	-0.0	-0.0	-0.0	-0.0	-0.0	-0.0	-0.0	-0.0	-0.0	-0.0	-0.0	-0.0
0.652	-0.0	-0.0	-0.0	1.5411534309387207	4.674806118011475	-789.229248046875	-0.0	-0.0	-0.0	-0.0	-0.0	-0.0	-0.0	-0.0	-0.0	-0.0	-0.0	-0.0
0.6525	-0.0	-0.0	-0.0	1.7918440103530884	5.622842311859131	-788.297607421875	-0.0	-0.0	-0.0	-0.0	-0.0	-0.0	-0.0	-0.0	-0.0	-0.0	-0.0	-0.0
0.653	-0.0	-0.0	-0.0	2.0744149684906006	5.590517044067383	-788.91455078125	-0.0	-0.0	-0.0	-0.0	-0.0	-0.0	-0.0	-0.0	-0.0	-0.0	-0.0	-0.0
0.6535	-0.0	-0.0	-0.0	2.0592598915100098	5.743937969207764	-787.2968139648438	-0.0	-0.0	-0.0	-0.0	-0.0	-0.0	-0.0	-0.0	-0.0	-0.0	-0.0	-0.0
0.654	-0.0	-0.0	-0.0	2.32678771018982	5.929368495941162	-787.973388671875	-0.0	-0.0	-0.0	-0.0	-0.0	-0.0	-0.0	-0.0	-0.0	-0.0	-0.0	-0.0
0.6545	-0.0	-0.0	-0.0	2.1909191608428955	6.9200615882873535	-785.6981201171875	-0.0	-0.0	-0.0	-0.0	-0.0	-0.0	-0.0	-0.0	-0.0	-0.0	-0.0	-0.0
0.655	-0.0	-0.0	-0.0	2.2552690505981445	7.551100254058838	-785.02001953125	-0.0	-0.0	-0.0	-0.0	-0.0	-0.0	-0.0	-0.0	-0.0	-0.0	-0.0	-0.0
0.6555	-0.0	-0.0	-0.0	2.337554693222046	7.857449054718018	-783.9324951171875	-0.0	-0.0	-0.0	-0.0	-0.0	-0.0	-0.0	-0.0	-0.0	-0.0	-0.0	-0.0
0.656	-0.0	-0.0	-0.0	2.497894287109375	8.709654808044434	-783.6517333984375	-0.0	-0.0	-0.0	-0.0	-0.0	-0.0	-0.0	-0.0	-0.0	-0.0	-0.0	-0.0
0.6565	-0.0	-0.0	-0.0	2.351468324661255	9.130035400390623	-781.1610107421875	-0.0	-0.0	-0.0	-0.0	-0.0	-0.0	-0.0	-0.0	-0.0	-0.0	-0.0	-0.0
0.657	-0.0	-0.0	-0.0	2.6629717350006104	9.486420631408691	-780.0744018554688	-0.0	-0.0	-0.0	-0.0	-0.0	-0.0	-0.0	-0.0	-0.0	-0.0	-0.0	-0.0
0.6575	-0.0	-0.0	-0.0	2.555180549621582	9.397144317626951	-779.0889892578125	-0.0	-0.0	-0.0	-0.0	-0.0	-0.0	-0.0	-0.0	-0.0	-0.0	-0.0	-0.0
0.658	-0.0	-0.0	-0.0	2.440571546554565	9.676907539367676	-778.5347900390625	-0.0	-0.0	-0.0	-0.0	-0.0	-0.0	-0.0	-0.0	-0.0	-0.0	-0.0	-0.0
0.6585	-0.0	-0.0	-0.0	2.854736328125	9.575122833251951	-776.8948974609375	-0.0	-0.0	-0.0	-0.0	-0.0	-0.0	-0.0	-0.0	-0.0	-0.0	-0.0	-0.0
0.659	-0.0	-0.0	-0.0	2.3450493812561035	9.594294548034668	-776.4920043945312	-0.0	-0.0	-0.0	-0.0	-0.0	-0.0	-0.0	-0.0	-0.0	-0.0	-0.0	-0.0
0.6595	-0.0	-0.0	-0.0	2.07749080657959	8.67127513885498	-775.02685546875	-0.0	-0.0	-0.0	-0.0	-0.0	-0.0	-0.0	-0.0	-0.0	-0.0	-0.0	-0.0
0.66	-0.0	-0.0	-0.0	1.8854793310165403	8.964428901672363	-775.4335327148438	-0.0	-0.0	-0.0	-0.0	-0.0	-0.0	-0.0	-0.0	-0.0	-0.0	-0.0	-0.0
0.6605	-0.0	-0.0	-0.0	1.988421440124512	8.683245658874512	-774.5001831054688	-0.0	-0.0	-0.0	-0.0	-0.0	-0.0	-0.0	-0.0	-0.0	-0.0	-0.0	-0.0
0.661	-0.0	-0.0	-0.0	1.574115514755249	8.429937362670898	-772.7576904296875	-0.0	-0.0	-0.0	-0.0	-0.0	-0.0	-0.0	-0.0	-0.0	-0.0	-0.0	-0.0
0.6615	-0.0	-0.0	-0.0	1.5482169389724731	7.880784511566162	-775.355224609375	-0.0	-0.0	-0.0	-0.0	-0.0	-0.0	-0.0	-0.0	-0.0	-0.0	-0.0	-0.0
0.662	-0.0	-0.0	-0.0	1.6373928785324097	8.174016952514648	-775.5023803710938	-0.0	-0.0	-0.0	-0.0	-0.0	-0.0	-0.0	-0.0	-0.0	-0.0	-0.0	-0.0
0.6625	-0.0	-0.0	-0.0	1.453444242477417	8.504413604736328	-777.9304809570312	-0.0	-0.0	-0.0	-0.0	-0.0	-0.0	-0.0	-0.0	-0.0	-0.0	-0.0	-0.0
0.663	-0.0	-0.0	-0.0	1.7265304327011108	8.766282081604004	-780.3206176757812	-0.0	-0.0	-0.0	-0.0	-0.0	-0.0	-0.0	-0.0	-0.0	-0.0	-0.0	-0.0
0.6635	-0.0	-0.0	-0.0	2.230262756347656	9.384885787963867	-778.9282836914062	-0.0	-0.0	-0.0	-0.0	-0.0	-0.0	-0.0	-0.0	-0.0	-0.0	-0.0	-0.0
0.664	-0.0	-0.0	-0.0	2.188462972640991	9.583880424499512	-782.6893920898438	-0.0	-0.0	-0.0	-0.0	-0.0	-0.0	-0.0	-0.0	-0.0	-0.0	-0.0	-0.0
0.6645	-0.0	-0.0	-0.0	2.1775364875793457	10.512331008911133	-781.4227294921875	-0.0	-0.0	-0.0	-0.0	-0.0	-0.0	-0.0	-0.0	-0.0	-0.0	-0.0	-0.0
0.665	-0.0	-0.0	-0.0	2.2203469276428223	11.14625358581543	-782.2085571289062	-0.0	-0.0	-0.0	-0.0	-0.0	-0.0	-0.0	-0.0	-0.0	-0.0	-0.0	-0.0
0.6655	-0.0	-0.0	-0.0	2.2567672729492188	11.96995449066162	-780.3843383789062	-0.0	-0.0	-0.0	-0.0	-0.0	-0.0	-0.0	-0.0	-0.0	-0.0	-0.0	-0.0
